<svg xmlns="http://www.w3.org/2000/svg" viewBox="0 0 1200 900" fill="none">
  <rect width="1200" height="900" rx="46" fill="#07111D" />
  <rect x="84" y="84" width="1032" height="732" rx="36" fill="rgba(255,255,255,.03)" stroke="rgba(255,255,255,.16)" />
  <g stroke="#8DB0FF" stroke-opacity=".24" stroke-width="2">
    <rect x="146" y="146" width="908" height="84" rx="18" />
    <rect x="146" y="270" width="508" height="486" rx="28" />
    <rect x="688" y="270" width="366" height="144" rx="28" />
    <rect x="688" y="450" width="366" height="144" rx="28" />
    <rect x="688" y="630" width="366" height="126" rx="28" />
    <line x1="214" y1="334" x2="584" y2="334" />
    <line x1="214" y1="410" x2="584" y2="410" />
    <line x1="214" y1="486" x2="584" y2="486" />
    <line x1="214" y1="562" x2="584" y2="562" />
  </g>
  <text x="172" y="206" fill="#EDF4FF" font-family="Arial, sans-serif" font-size="40" font-weight="700">Wireframe e planejamento</text>
  <rect x="738" y="320" width="180" height="18" rx="9" fill="#5EEAD4" fill-opacity=".24" />
  <rect x="738" y="500" width="220" height="18" rx="9" fill="#8DB0FF" fill-opacity=".22" />
  <rect x="738" y="680" width="160" height="18" rx="9" fill="#FFBE78" fill-opacity=".22" />
</svg>
