<svg xmlns="http://www.w3.org/2000/svg" viewBox="0 0 1200 900" fill="none">
  <defs>
    <linearGradient id="dashboard-bg" x1="122" y1="68" x2="1088" y2="858" gradientUnits="userSpaceOnUse">
      <stop stop-color="#132846" />
      <stop offset="1" stop-color="#07111D" />
    </linearGradient>
  </defs>
  <rect width="1200" height="900" rx="46" fill="url(#dashboard-bg)" />
  <rect x="86" y="92" width="1028" height="716" rx="34" fill="rgba(255,255,255,.04)" stroke="rgba(255,255,255,.14)" />
  <rect x="150" y="152" width="900" height="88" rx="22" fill="#0B1726" fill-opacity=".78" />
  <rect x="150" y="278" width="264" height="164" rx="28" fill="#0B1726" fill-opacity=".78" />
  <rect x="444" y="278" width="264" height="164" rx="28" fill="#0B1726" fill-opacity=".78" />
  <rect x="738" y="278" width="312" height="164" rx="28" fill="#0B1726" fill-opacity=".78" />
  <rect x="150" y="476" width="462" height="264" rx="30" fill="#0B1726" fill-opacity=".78" />
  <rect x="644" y="476" width="406" height="264" rx="30" fill="#0B1726" fill-opacity=".78" />
  <polyline points="206,646 280,574 346,602 434,508 548,540" stroke="#5EEAD4" stroke-width="10" stroke-linecap="round" stroke-linejoin="round" />
  <circle cx="852" cy="606" r="86" stroke="#8DB0FF" stroke-width="18" />
  <path d="M852 520a86 86 0 1 1-60.811 25.189" stroke="#5EEAD4" stroke-width="18" stroke-linecap="round" />
  <text x="184" y="208" fill="#EDF4FF" font-family="Arial, sans-serif" font-size="40" font-weight="700">Dashboard de Operacoes Criativas</text>
</svg>
