<svg xmlns="http://www.w3.org/2000/svg" viewBox="0 0 1200 900" fill="none">
  <rect width="1200" height="900" rx="46" fill="#08121F" />
  <rect x="84" y="84" width="1032" height="732" rx="36" fill="rgba(255,255,255,.04)" stroke="rgba(255,255,255,.16)" />
  <rect x="148" y="148" width="904" height="92" rx="22" fill="#0B1726" fill-opacity=".8" />
  <rect x="148" y="286" width="288" height="202" rx="30" fill="#0B1726" fill-opacity=".8" />
  <rect x="456" y="286" width="288" height="202" rx="30" fill="#0B1726" fill-opacity=".8" />
  <rect x="764" y="286" width="288" height="202" rx="30" fill="#0B1726" fill-opacity=".8" />
  <rect x="148" y="528" width="420" height="224" rx="30" fill="#0B1726" fill-opacity=".8" />
  <rect x="600" y="528" width="452" height="224" rx="30" fill="#0B1726" fill-opacity=".8" />
  <circle cx="280" cy="388" r="42" fill="#5EEAD4" fill-opacity=".18" stroke="#5EEAD4" stroke-width="2" />
  <rect x="490" y="344" width="220" height="22" rx="11" fill="#8DB0FF" fill-opacity=".24" />
  <rect x="490" y="386" width="180" height="22" rx="11" fill="#5EEAD4" fill-opacity=".22" />
  <rect x="794" y="344" width="220" height="22" rx="11" fill="#FFBE78" fill-opacity=".22" />
  <rect x="794" y="386" width="160" height="22" rx="11" fill="#8DB0FF" fill-opacity=".22" />
  <text x="184" y="206" fill="#EDF4FF" font-family="Arial, sans-serif" font-size="40" font-weight="700">Hub de Cursos e Certificados</text>
</svg>
