<svg width="1200" height="900" viewBox="0 0 1200 900" fill="none" xmlns="http://www.w3.org/2000/svg">
  <rect width="1200" height="900" rx="64" fill="#081521"/>
  <rect x="36" y="36" width="1128" height="828" rx="48" fill="url(#bg)"/>
  <circle cx="944" cy="184" r="176" fill="#3BC8B4" fill-opacity="0.18"/>
  <circle cx="212" cy="730" r="190" fill="#82A8FF" fill-opacity="0.18"/>
  <rect x="92" y="92" width="1016" height="716" rx="36" fill="#0D2034" stroke="#274764" stroke-width="2"/>
  <rect x="144" y="154" width="372" height="202" rx="28" fill="#122C46"/>
  <rect x="172" y="186" width="154" height="18" rx="9" fill="#4FE0C7"/>
  <rect x="172" y="220" width="248" height="14" rx="7" fill="#7D93B5"/>
  <rect x="172" y="254" width="210" height="14" rx="7" fill="#5F789D"/>
  <rect x="172" y="304" width="132" height="26" rx="13" fill="#1B3F5E"/>
  <rect x="552" y="154" width="504" height="202" rx="28" fill="#122C46"/>
  <rect x="596" y="198" width="130" height="130" rx="65" stroke="#4FE0C7" stroke-width="18"/>
  <path d="M662 240L662 292L706 292" stroke="#4FE0C7" stroke-width="18" stroke-linecap="round" stroke-linejoin="round"/>
  <rect x="776" y="198" width="228" height="18" rx="9" fill="#F8BC78"/>
  <rect x="776" y="234" width="180" height="14" rx="7" fill="#7D93B5"/>
  <rect x="776" y="264" width="156" height="14" rx="7" fill="#7D93B5"/>
  <rect x="776" y="300" width="118" height="22" rx="11" fill="#1B3F5E"/>
  <rect x="144" y="394" width="912" height="352" rx="30" fill="#101F33"/>
  <rect x="184" y="438" width="252" height="262" rx="24" fill="#152B43"/>
  <rect x="472" y="438" width="252" height="262" rx="24" fill="#152B43"/>
  <rect x="760" y="438" width="252" height="262" rx="24" fill="#152B43"/>
  <rect x="214" y="474" width="96" height="14" rx="7" fill="#7D93B5"/>
  <rect x="214" y="512" width="144" height="106" rx="22" fill="#4FE0C7" fill-opacity="0.2"/>
  <rect x="502" y="474" width="118" height="14" rx="7" fill="#7D93B5"/>
  <rect x="502" y="522" width="178" height="18" rx="9" fill="#F8BC78"/>
  <rect x="502" y="556" width="150" height="14" rx="7" fill="#7D93B5"/>
  <rect x="502" y="586" width="188" height="14" rx="7" fill="#5F789D"/>
  <rect x="790" y="474" width="138" height="14" rx="7" fill="#7D93B5"/>
  <rect x="790" y="518" width="188" height="134" rx="22" fill="#82A8FF" fill-opacity="0.18"/>
  <text x="148" y="796" fill="#EAF3FF" font-family="Arial, sans-serif" font-size="68" font-weight="700">CampusFlow</text>
  <text x="150" y="844" fill="#8EA5C6" font-family="Arial, sans-serif" font-size="30">Gestao academica offline-first para disciplinas, horas e estudos.</text>
  <defs>
    <linearGradient id="bg" x1="80" y1="88" x2="1044" y2="820" gradientUnits="userSpaceOnUse">
      <stop stop-color="#0C1A2B"/>
      <stop offset="1" stop-color="#102842"/>
    </linearGradient>
  </defs>
</svg>
